<svg width="97" height="98.00000000000001" xmlns="http://www.w3.org/2000/svg" xml:space="preserve" version="1.1">
 <defs>
  <linearGradient y2="0.5" x2="0.99926" y1="0.5" x1="-0.00074" id="SVGID_1_">
   <stop stop-color="#00A9CE" offset="0"/>
   <stop stop-color="#00A7CB" offset="0.411"/>
   <stop stop-color="#009FC3" offset="0.6581"/>
   <stop stop-color="#0091B5" offset="0.8612"/>
   <stop stop-color="#0083A6" offset="1"/>
  </linearGradient>
  <linearGradient y2="0.5" x2="1.00083" y1="0.5" x1="0.00083" id="SVGID_2_">
   <stop stop-color="#FFA300" offset="0"/>
   <stop stop-color="#FCA200" offset="0.3498"/>
   <stop stop-color="#F49D00" offset="0.5601"/>
   <stop stop-color="#E69600" offset="0.7336"/>
   <stop stop-color="#D28B00" offset="0.8861"/>
   <stop stop-color="#BD8000" offset="1"/>
  </linearGradient>
  <linearGradient y2="0.5" x2="0.9966" y1="0.5" x1="-0.00142" id="SVGID_3_">
   <stop stop-color="#00B140" offset="0"/>
   <stop stop-color="#00AE40" offset="0.3902"/>
   <stop stop-color="#01A63E" offset="0.6248"/>
   <stop stop-color="#02983B" offset="0.8176"/>
   <stop stop-color="#038437" offset="0.9878"/>
   <stop stop-color="#038237" offset="1"/>
  </linearGradient>
 </defs>
 <g>
  <title>Layer 1</title>
  <g id="svg_1">
   <path id="svg_2" fill="#FFFFFF" d="m107.4,89.2c0,1.2 0.7,1.4 2.1,1.8c1.7,0.5 2.7,1.1 2.7,2.9c0,2.1 -1.3,2.8 -3.5,2.8c-1.1,0 -1.8,-0.1 -2.6,-0.2l0.1,-1.1c0.8,0.1 1.7,0.2 2.4,0.2c1.3,0 2.1,-0.3 2.1,-1.6c0,-1.1 -0.9,-1.4 -2,-1.8c-1.7,-0.5 -2.8,-1 -2.8,-2.8c0,-2 1.2,-2.7 3.4,-2.7c0.9,0 1.9,0.1 2.6,0.2l-0.1,1.1c-0.6,-0.1 -1.3,-0.2 -2,-0.2c-1,0.1 -2.4,0.2 -2.4,1.4z" class="st0"/>
   <path id="svg_3" fill="#FFFFFF" d="m114.2,86.8l1.4,0l0,9.8l-1.4,0l0,-9.8z" class="st0"/>
   <path id="svg_4" fill="#FFFFFF" d="m118.8,89.2c0,1.2 0.7,1.4 2.1,1.8c1.7,0.5 2.7,1.1 2.7,2.9c0,2.1 -1.3,2.8 -3.5,2.8c-1.1,0 -1.8,-0.1 -2.6,-0.2l0.1,-1.1c0.8,0.1 1.7,0.2 2.4,0.2c1.3,0 2.1,-0.3 2.1,-1.6c0,-1.1 -0.9,-1.4 -2,-1.8c-1.7,-0.5 -2.8,-1 -2.8,-2.8c0,-2 1.2,-2.7 3.4,-2.7c0.9,0 1.9,0.1 2.6,0.2l-0.1,1.1c-0.6,-0.1 -1.3,-0.2 -2,-0.2c-1,0.1 -2.4,0.2 -2.4,1.4z" class="st0"/>
   <path id="svg_5" fill="#FFFFFF" d="m131.6,87.9l-2.6,0l0,8.6l-1.4,0l0,-8.6l-2.6,0l0,-1.1l6.5,0l0.1,1.1l0,0z" class="st0"/>
   <path id="svg_6" fill="#FFFFFF" d="m138.9,87.9l-2.5,0c-1.6,0 -1.9,0.3 -1.9,1.7l0,1.5l4.2,0l0,1.1l-4.2,0l0,1.6c0,1.4 0.3,1.7 1.9,1.7l2.5,0l0,1.1c-0.8,0 -1.8,0.1 -2.5,0.1c-1.7,0 -3.3,-0.1 -3.3,-2.2l0,-5.4c0,-2.1 1.6,-2.2 3.3,-2.2c0.6,0 1.7,0 2.5,0.1l0,0.9z" class="st0"/>
   <path id="svg_7" fill="#FFFFFF" d="m145.8,93.6l2.6,-6c0.2,-0.6 0.6,-0.9 1,-0.9c0.6,0 0.9,0.3 0.9,1l0.5,8.9l-1.3,0l-0.4,-7.9l-2.5,5.9c-0.2,0.4 -0.4,0.6 -0.8,0.6c-0.4,0 -0.6,-0.2 -0.8,-0.6l-2.5,-5.9l-0.4,7.8l-1.3,0l0.5,-8.9c0,-0.7 0.3,-1 0.9,-1c0.4,0 0.8,0.3 1,0.8l2.6,6.2z" class="st0"/>
   <path id="svg_8" fill="#FFFFFF" d="m152.4,96.6l3.2,-8.9c0.2,-0.6 0.6,-0.9 1.1,-0.9s0.9,0.3 1.1,0.9l3.1,8.9l-1.4,0l-0.9,-2.7l-3.9,0l-0.9,2.7l-1.4,0zm6,-3.8l-1.6,-4.7l-1.6,4.7l3.2,0z" class="st0"/>
   <path id="svg_9" fill="#FFFFFF" d="m166.6,87c0.8,-0.1 1.9,-0.2 3,-0.2c3.6,0 4.2,1.7 4.2,5s-0.6,5 -4.2,5c-1.1,0 -2.2,-0.1 -3,-0.2l0,-9.6zm1.3,0.9l0,7.5c0.4,0.1 0.9,0.1 1.4,0.1c3.1,0 3.2,-1.7 3.2,-3.9s0,-3.9 -3.2,-3.9c-0.4,0.2 -0.9,0.2 -1.4,0.2z" class="st0"/>
   <path id="svg_10" fill="#FFFFFF" d="m181.8,87.9l-2.5,0c-1.6,0 -1.9,0.3 -1.9,1.7l0,1.5l4.2,0l0,1.1l-4.2,0l0,1.6c0,1.4 0.3,1.7 1.9,1.7l2.5,0l0,1.1c-0.7,0 -1.8,0.1 -2.5,0.1c-1.7,0 -3.3,-0.1 -3.3,-2.2l0,-5.4c0,-2.1 1.6,-2.2 3.3,-2.2c0.6,0 1.7,0 2.5,0.1l0,0.9z" class="st0"/>
   <path id="svg_11" fill="#FFFFFF" d="m193.8,96.4c-0.6,0.1 -1.4,0.2 -2.3,0.2c-3.2,0 -3.9,-1.5 -3.9,-5s0.8,-5 3.9,-5c0.9,0 1.7,0.1 2.3,0.2l-0.1,1.1c-0.6,-0.1 -1.2,-0.2 -1.8,-0.2c-2.8,0 -3,1.5 -3,3.8c0,2.4 0.2,3.8 3,3.8c0.6,0 1.2,-0.1 1.8,-0.2l0.1,1.3z" class="st0"/>
   <path id="svg_12" fill="#FFFFFF" d="m195.1,91.7c0,-3.5 0.9,-5 3.8,-5s3.8,1.4 3.8,5c0,3.5 -0.8,5 -3.8,5s-3.8,-1.5 -3.8,-5zm6.3,0c0,-2.3 -0.1,-3.9 -2.4,-3.9c-2.4,0 -2.4,1.6 -2.4,3.9s0.1,3.8 2.4,3.8c2.3,0.1 2.4,-1.5 2.4,-3.8z" class="st0"/>
   <path id="svg_13" fill="#FFFFFF" d="m204.6,91.7c0,-3.5 0.9,-5 3.8,-5s3.8,1.4 3.8,5c0,3.5 -0.8,5 -3.8,5s-3.8,-1.5 -3.8,-5zm6.3,0c0,-2.3 -0.1,-3.9 -2.4,-3.9c-2.4,0 -2.4,1.6 -2.4,3.9s0.1,3.8 2.4,3.8c2.4,0.1 2.4,-1.5 2.4,-3.8z" class="st0"/>
   <path id="svg_14" fill="#FFFFFF" d="m215.9,96.6l-1.4,0l0,-9.6c0.8,-0.1 1.9,-0.2 3,-0.2c2.1,0 3.8,0.4 3.8,3c0,2.5 -1.5,3.1 -3.7,3.1c-0.5,0 -1.3,0 -1.8,-0.1l0.1,3.8l0,0zm0,-5c0.6,0.1 1.1,0.1 1.7,0.1c1.6,0 2.5,-0.4 2.5,-2c0,-1.4 -0.6,-1.9 -2.4,-1.9c-0.5,0 -1.1,0 -1.7,0.1l0,3.7l-0.1,0z" class="st0"/>
   <path id="svg_15" fill="#FFFFFF" d="m228.9,87.9l-2.5,0c-1.6,0 -1.9,0.3 -1.9,1.7l0,1.5l4.2,0l0,1.1l-4.2,0l0,1.6c0,1.4 0.3,1.7 1.9,1.7l2.5,0l0,1.1c-0.7,0 -1.8,0.1 -2.5,0.1c-1.7,0 -3.3,-0.1 -3.3,-2.2l0,-5.4c0,-2.1 1.6,-2.2 3.3,-2.2c0.6,0 1.7,0 2.5,0.1l0,0.9z" class="st0"/>
   <path id="svg_16" fill="#FFFFFF" d="m230.9,96.6l0,-9.6c0.8,-0.1 2,-0.2 3,-0.2c2.1,0 3.8,0.4 3.8,2.9c0,1.8 -0.9,2.6 -2.2,2.9l2.3,4l-1.6,0l-2.2,-3.9l-0.1,0c-0.5,0 -1.3,0 -1.8,-0.1l0,4l-1.2,0l0,0zm1.5,-5.1c0.6,0.1 1.1,0.1 1.7,0.1c1.6,0 2.5,-0.4 2.5,-1.9c0,-1.4 -0.6,-1.9 -2.4,-1.9c-0.5,0 -1.1,0 -1.7,0.1l-0.1,3.6l0,0z" class="st0"/>
   <path id="svg_17" fill="#FFFFFF" d="m239.6,96.6l3.2,-8.9c0.2,-0.6 0.6,-0.9 1.1,-0.9s0.9,0.3 1.1,0.9l3.1,8.9l-1.5,0l-0.9,-2.7l-3.9,0l-0.9,2.7l-1.3,0zm5.8,-3.8l-1.6,-4.7l-1.6,4.7l3.2,0z" class="st0"/>
   <path id="svg_18" fill="#FFFFFF" d="m254.4,87.9l-2.6,0l0,8.6l-1.4,0l0,-8.6l-2.6,0l0,-1.1l6.5,0l0.1,1.1l0,0z" class="st0"/>
   <path id="svg_19" fill="#FFFFFF" d="m256.1,86.8l1.4,0l0,9.8l-1.4,0l0,-9.8z" class="st0"/>
   <path id="svg_20" fill="#FFFFFF" d="m264.5,95.8c-0.2,0.7 -0.6,0.9 -1.1,0.9s-0.8,-0.3 -1.1,-0.9l-3,-8.9l1.5,0l2.6,8.2l2.7,-8.2l1.4,0l-3,8.9z" class="st0"/>
   <path id="svg_21" fill="#FFFFFF" d="m267,96.6l3.2,-8.9c0.2,-0.6 0.6,-0.9 1.1,-0.9s0.9,0.3 1.1,0.9l3.1,8.9l-1.5,0l-0.9,-2.7l-3.9,0l-0.9,2.7l-1.3,0zm5.9,-3.8l-1.6,-4.7l-1.6,4.7l3.2,0z" class="st0"/>
   <path id="svg_22" fill="#FFFFFF" d="m278.1,89.2c0,1.2 0.7,1.4 2.1,1.8c1.7,0.5 2.7,1.1 2.7,2.9c0,2.1 -1.3,2.8 -3.5,2.8c-1,0 -1.8,-0.1 -2.6,-0.2l0.1,-1.1c0.8,0.1 1.7,0.2 2.4,0.2c1.3,0 2.1,-0.3 2.1,-1.6c0,-1.1 -0.9,-1.4 -2,-1.8c-1.7,-0.5 -2.8,-1 -2.8,-2.8c0,-2 1.2,-2.7 3.4,-2.7c0.9,0 1.9,0.1 2.6,0.2l-0.1,1.1c-0.6,-0.1 -1.3,-0.2 -2,-0.2c-1,0.1 -2.4,0.2 -2.4,1.4z" class="st0"/>
   <path id="svg_23" fill="#FFFFFF" d="m106.6,103.7c0.8,-0.1 1.9,-0.2 3,-0.2c3.6,0 4.2,1.7 4.2,5s-0.6,5 -4.2,5c-1.1,0 -2.2,-0.1 -3,-0.2l0,-9.6zm1.2,1l0,7.5c0.4,0.1 0.9,0.1 1.4,0.1c3.1,0 3.2,-1.7 3.2,-3.9s0,-3.9 -3.2,-3.9c-0.4,0.1 -0.9,0.1 -1.4,0.2z" class="st0"/>
   <path id="svg_24" fill="#FFFFFF" d="m121.8,104.6l-2.5,0c-1.6,0 -1.9,0.3 -1.9,1.7l0,1.5l4.2,0l0,1.1l-4.2,0l0,1.6c0,1.4 0.3,1.7 1.9,1.7l2.5,0l0,1.1c-0.8,0 -1.8,0.1 -2.5,0.1c-1.7,0 -3.3,-0.1 -3.3,-2.2l0,-5.4c0,-2.1 1.6,-2.2 3.3,-2.2c0.6,0 1.7,0 2.5,0.1l0,0.9z" class="st0"/>
   <path id="svg_25" fill="#FFFFFF" d="m133.6,113.1c-0.6,0.1 -1.4,0.2 -2.3,0.2c-3.2,0 -3.9,-1.5 -3.9,-5s0.8,-5 3.9,-5c0.9,0 1.7,0.1 2.3,0.2l-0.1,1.1c-0.6,-0.1 -1.2,-0.2 -1.8,-0.2c-2.8,0 -3,1.5 -3,3.8c0,2.4 0.2,3.8 3,3.8c0.6,0 1.2,-0.1 1.8,-0.2l0.1,1.3z" class="st0"/>
   <path id="svg_26" fill="#FFFFFF" d="m135.6,113.3l0,-9.6c0.8,-0.1 2,-0.2 3,-0.2c2.1,0 3.8,0.4 3.8,2.9c0,1.9 -0.9,2.6 -2.2,2.9l2.3,4l-1.6,0l-2.2,-3.9l-0.1,0c-0.5,0 -1.3,0 -1.8,-0.1l0,4l-1.2,0l0,0zm1.3,-5.1c0.6,0.1 1.1,0.1 1.7,0.1c1.6,0 2.5,-0.4 2.5,-1.9c0,-1.4 -0.6,-1.9 -2.4,-1.9c-0.5,0 -1.1,0 -1.7,0.1l0,3.6l-0.1,0z" class="st0"/>
   <path id="svg_27" fill="#FFFFFF" d="m150.1,104.6l-2.5,0c-1.6,0 -1.9,0.3 -1.9,1.7l0,1.5l4.2,0l0,1.1l-4.2,0l0,1.6c0,1.4 0.3,1.7 1.9,1.7l2.5,0l0,1.1c-0.8,0 -1.8,0.1 -2.5,0.1c-1.7,0 -3.3,-0.1 -3.3,-2.2l0,-5.4c0,-2.1 1.6,-2.2 3.3,-2.2c0.6,0 1.7,0 2.5,0.1l0,0.9zm-2,-3.6l1.6,0l-1.9,1.7l-1.1,0l1.4,-1.7z" class="st0"/>
   <path id="svg_28" fill="#FFFFFF" d="m152.1,103.7c0.8,-0.1 1.9,-0.2 3,-0.2c3.6,0 4.2,1.7 4.2,5s-0.6,5 -4.2,5c-1.1,0 -2.2,-0.1 -3,-0.2l0,-9.6zm1.5,1l0,7.5c0.4,0.1 0.9,0.1 1.4,0.1c3.1,0 3.2,-1.7 3.2,-3.9s0,-3.9 -3.2,-3.9c-0.6,0.1 -1.1,0.1 -1.4,0.2z" class="st0"/>
   <path id="svg_29" fill="#FFFFFF" d="m161.6,103.5l1.4,0l0,9.8l-1.4,0l0,-9.8z" class="st0"/>
   <path id="svg_30" fill="#FFFFFF" d="m171.4,104.6l-2.6,0l0,8.6l-1.4,0l0,-8.6l-2.6,0l0,-1.1l6.5,0l0,1.1l0.1,0z" class="st0"/>
   <path id="svg_31" fill="#FFFFFF" d="m172.6,108.4c0,-3.5 0.9,-5 3.8,-5s3.8,1.4 3.8,5c0,3.5 -0.8,5 -3.8,5s-3.8,-1.5 -3.8,-5zm6.3,0c0,-2.3 -0.1,-3.9 -2.4,-3.9c-2.4,0 -2.4,1.6 -2.4,3.9s0.1,3.9 2.4,3.9s2.4,-1.6 2.4,-3.9z" class="st0"/>
  </g>
  <g id="svg_32">
   <path id="svg_33" fill="#FFFFFF" d="m106.2,72.5l14.2,-41.7c1.6,-4.7 4.2,-6.7 7.9,-6.7c3.6,0 6.3,2.1 7.8,6.7l14,41.7l-10.3,0l-3.7,-11.8l-16.3,0l-3.6,11.8l-10,0zm27.7,-19.3l-5.9,-19.3l-5.9,19.3l11.8,0z" class="st0"/>
   <path id="svg_34" fill="#FFFFFF" d="m155.6,24.7l9.7,0l0,47.9l-9.7,0l0,-47.9z" class="st0"/>
   <path id="svg_35" fill="#FFFFFF" d="m203.6,72.3c-3.4,0.1 -9.2,0.3 -12.2,0.3c-8.6,0 -16.6,-0.5 -16.6,-11.7l0,-36.2l9.7,0l0,33.6c0,5.3 1,6.5 6.7,6.5l12.4,0l0,7.5l0,0z" class="st0"/>
   <path id="svg_36" fill="#FFFFFF" d="m207.9,48.6c0,-17.3 4.2,-24.4 19.1,-24.4c14.9,0 19.1,7.1 19.1,24.4s-4.1,24.4 -19,24.4c-14.8,0 -19.2,-7.1 -19.2,-24.4zm28.5,0c0,-9.8 -0.2,-16.4 -9.3,-16.4s-9.3,6.7 -9.3,16.4c0,9.8 0.2,16.4 9.3,16.4c9,0 9.3,-6.6 9.3,-16.4z" class="st0"/>
   <path id="svg_37" fill="#FFFFFF" d="m262.4,37.1c0,4.8 3.3,5.5 8.8,6.9c9.2,2.5 13.1,6 13.1,14.7c0,10.6 -6.4,14.3 -17.8,14.3c-5.4,0 -9.9,-0.6 -13.8,-1.5l0.9,-7.7c3.5,0.5 8.8,1.1 12.5,1.1c5,0 8.1,-1.1 8.1,-5.9c0,-4.5 -3.5,-5.5 -8,-6.8c-8.6,-2.6 -13.6,-5.3 -13.6,-14.3c0,-10.4 6.1,-13.7 17.1,-13.7c5.1,0 10.3,0.8 13.7,1.5l-0.9,7.5c-3.1,-0.5 -7,-1 -10.5,-1c-3.9,-0.1 -9.6,0.1 -9.6,4.9z" class="st0"/>
  </g>
  <g id="svg_38">
   <g id="svg_39">
    <path id="svg_40" fill="#FFFFFF" d="m72.3,54.3l-9.2,-22.6c-0.9,-2.1 -1.6,-3.6 -3,-3.6s-2.1,1.6 -2.9,3.6l-5.7,13l-5.5,-13c-0.8,-2 -1.5,-3.6 -2.9,-3.6s-2.1,1.5 -3,3.6l-9.2,22.6c-0.6,1.6 -0.5,3.2 0.3,4.4s2.3,1.9 4,1.9l4.1,0l0,5.2c0,1.9 1.5,3.4 3.4,3.4l1,0c1.8,0 3.4,-1.5 3.4,-3.4l0,-2.5c0,-0.1 0,-0.2 0,-0.3l0,-2.4l4.1,0c0.1,0 0.3,0 0.4,0c0.1,0 0.2,0 0.4,0l4.1,0l0,2.4c0,0.1 0,0.2 0,0.3l0,2.5c0,1.9 1.5,3.4 3.4,3.4l1.2,0c1.8,0 3.4,-1.5 3.4,-3.4l0,-5.2l4.1,0c1.7,0 3.2,-0.7 4,-1.9c0.6,-1.2 0.7,-2.8 0.1,-4.4zm-24.5,3.8l-3.1,0l0,7.7c0,0.5 -0.4,0.9 -0.8,0.9l-1.2,0c-0.5,0 -0.8,-0.4 -0.8,-0.9l0,-3.1l0,-4.6l-6.6,0c-0.9,0 -1.5,-0.3 -1.9,-0.8c-0.3,-0.5 -0.4,-1.2 0,-2l9.1,-22.6c0.1,-0.3 0.4,-0.9 0.7,-1.4c0.2,0.4 0.4,0.8 0.6,1.4l6.5,15.3l-2.5,6.4c-0.5,1.3 -0.5,2.6 0,3.7zm5.4,-0.8c-0.3,0.4 -0.8,0.7 -1.5,0.8c-0.7,-0.1 -1.2,-0.4 -1.5,-0.8c-0.3,-0.5 -0.3,-1.2 0,-2l1.5,-3.9l1.6,3.9c0.2,0.8 0.2,1.5 -0.1,2zm16.7,0c-0.3,0.5 -1,0.8 -1.9,0.8l-6.6,0l0,7.7c0,0.5 -0.4,0.9 -0.8,0.9l-1.2,0c-0.5,0 -0.8,-0.4 -0.8,-0.9l0,-7.7l-3.1,0c0.5,-1.1 0.5,-2.4 0,-3.8l-2.5,-6.4l6.6,-15.2c0.2,-0.6 0.4,-1 0.6,-1.4c0.3,0.5 0.5,1.1 0.6,1.4l9.2,22.6c0.3,0.8 0.3,1.5 -0.1,2z" class="st0"/>
   </g>
   <g id="svg_41">
    <path id="svg_42" fill="url(#SVGID_1_)" d="m77.3,71.6c-6.4,6.9 -15.6,11.2 -25.7,11.2c-1.1,0 -2.1,-0.1 -3.2,-0.1c-3,0.8 -6.4,1.3 -9.7,1.3c-4.5,0 -8.9,-0.8 -12.9,-2.2c6.9,9 17.8,14.8 30.1,14.8c21,0 37.9,-17 37.9,-37.9c0,-1.7 -0.1,-3.4 -0.3,-5c-3.3,7.5 -9.1,13.8 -16.2,17.9z" class="st1"/>
    <path id="svg_43" fill="url(#SVGID_2_)" d="m57.5,13.1c11.3,1.9 20.7,9.2 25.6,19.1c5.5,5.7 9.2,13.1 10.3,21.3c2,-4.6 3.1,-9.7 3.1,-15c0,-20.8 -17,-37.8 -37.9,-37.8c-8.5,0 -16.3,2.8 -22.6,7.5c0.9,-0.1 1.8,-0.1 2.7,-0.1c6.8,0 13.3,1.8 18.8,5z" class="st2"/>
    <path id="svg_44" fill="#886B25" d="m86.8,47.7c0,9.2 -3.6,17.6 -9.4,23.9c7.2,-4.1 12.9,-10.4 16.1,-18c-1.1,-8.2 -4.8,-15.7 -10.3,-21.3c2.2,4.6 3.6,9.9 3.6,15.4z" class="st3"/>
    <path id="svg_45" fill="url(#SVGID_3_)" d="m18,57.6c-0.9,-3.2 -1.4,-6.5 -1.4,-9.9c0,-6.9 2,-13.3 5.4,-18.7c2.2,-8.5 7.3,-15.8 14.1,-20.8c-19.8,1.4 -35.3,17.8 -35.3,37.8c0,16.4 10.4,30.4 25,35.7c-4.9,-6.4 -7.8,-14.4 -7.8,-23.1c0,-0.3 0,-0.7 0,-1z" class="st4"/>
    <path id="svg_46" fill="#007D8A" d="m48.5,82.6c-14.5,-1.3 -26.5,-11.4 -30.5,-25c0,0.3 0,0.6 0,0.9c0,8.7 2.9,16.7 7.8,23.1c4,1.4 8.4,2.2 12.9,2.2c3.3,0.1 6.6,-0.3 9.8,-1.2z" class="st5"/>
    <path id="svg_47" fill="#007041" d="m22,29c6.2,-9.8 17.2,-16.4 29.7,-16.4c2,0 4,0.2 5.9,0.5c-5.6,-3.2 -12,-5 -18.9,-5c-0.9,0 -1.8,0 -2.7,0.1c-6.9,5.1 -11.9,12.4 -14,20.8z" class="st6"/>
   </g>
  </g>
 </g>
</svg>